<svg width="60" height="60" viewBox="0 0 60 60" fill="none" xmlns="http://www.w3.org/2000/svg">
<rect width="60" height="60" rx="30" fill="black" fill-opacity="0.01"/>
<path d="M24.221 10.164C27.3279 7.27869 32.3653 7.27861 35.4721 10.164L50.814 24.4134C53.8218 27.207 40.7469 27.8152 51.1008 34.5808C51.0405 34.5066 47.8462 37.9583 47.7735 37.8907L35.0484 25.8001V19.6439C35.0484 18.2245 37.0853 16.5452 35.4721 15.8735H26.2968C25.4495 16.6604 29.087 23.6061 29.9342 24.3931L45.7874 39.1174C45.8629 39.1875 45.943 39.2513 46.0261 39.3089L35.4721 49.1115C32.3653 51.9969 27.3279 51.9968 24.221 49.1115L8.87914 34.8622C5.87634 32.0733 11.4705 31.6473 12.1937 21.5436L26.2968 34.8622C25.2486 41.162 25.4495 44.189 26.2968 43.4021H35.0484C35.8957 42.6151 30.0519 35.1545 29.2046 34.3676L13.6826 19.9516L24.221 10.164Z" fill="white"/>
</svg>
