<svg width="1294" height="285" viewBox="0 0 1294 285" fill="none" xmlns="http://www.w3.org/2000/svg">
<rect y="34.156" width="387.33" height="216.321" rx="40" fill="white"/>
<rect x="428.276" width="416.103" height="284.633" rx="40" fill="white"/>
<rect x="885.325" y="34.156" width="387.33" height="216.321" rx="40" fill="white"/>
<path d="M86.4391 106.755C92.0801 101.517 101.226 101.516 106.867 106.755L134.723 132.627C140.184 137.699 116.444 138.804 135.243 151.088C135.134 150.953 129.334 157.22 129.202 157.098L106.098 135.145V123.968C106.098 121.39 109.796 118.341 106.867 117.122H90.208C88.6696 118.55 95.2741 131.162 96.8122 132.59L125.596 159.325C125.733 159.452 125.879 159.568 126.03 159.672L106.867 177.471C101.226 182.71 92.0801 182.709 86.4391 177.471L58.5835 151.599C53.1315 146.535 63.2885 145.762 64.6017 127.417L90.208 151.599C88.3049 163.037 88.6695 168.533 90.208 167.104H106.098C107.636 165.675 97.0259 152.129 95.4875 150.701L67.3049 124.526L86.4391 106.755Z" fill="#281B87"/>
<path d="M145.987 154.561L157.327 129.361H161.935L173.311 154.561H168.415L158.659 131.845H160.531L150.811 154.561H145.987ZM151.207 148.729L152.467 145.057H166.075L167.335 148.729H151.207ZM176.671 154.561V135.337H181.171V143.149H190.855V135.337H195.355V154.561H190.855V146.965H181.171V154.561H176.671ZM213.05 154.561V150.673L212.798 149.845V143.041C212.798 141.721 212.402 140.701 211.61 139.981C210.818 139.237 209.618 138.865 208.01 138.865C206.93 138.865 205.862 139.033 204.806 139.369C203.774 139.705 202.898 140.173 202.178 140.773L200.414 137.497C201.446 136.705 202.67 136.117 204.086 135.733C205.526 135.325 207.014 135.121 208.55 135.121C211.334 135.121 213.482 135.793 214.994 137.137C216.53 138.457 217.298 140.509 217.298 143.293V154.561H213.05ZM207.002 154.813C205.562 154.813 204.302 154.573 203.222 154.093C202.142 153.589 201.302 152.905 200.702 152.041C200.126 151.153 199.838 150.157 199.838 149.053C199.838 147.973 200.09 147.001 200.594 146.137C201.122 145.273 201.974 144.589 203.15 144.085C204.326 143.581 205.886 143.329 207.83 143.329H213.41V146.317H208.154C206.618 146.317 205.586 146.569 205.058 147.073C204.53 147.553 204.266 148.153 204.266 148.873C204.266 149.689 204.59 150.337 205.238 150.817C205.886 151.297 206.786 151.537 207.938 151.537C209.042 151.537 210.026 151.285 210.89 150.781C211.778 150.277 212.414 149.533 212.798 148.549L213.554 151.249C213.122 152.377 212.342 153.253 211.214 153.877C210.11 154.501 208.706 154.813 207.002 154.813ZM222.543 154.921C222.183 154.921 221.787 154.885 221.355 154.813C220.947 154.741 220.515 154.645 220.059 154.525L220.275 150.745C220.443 150.769 220.599 150.793 220.743 150.817C220.887 150.841 221.019 150.853 221.139 150.853C221.883 150.853 222.459 150.625 222.867 150.169C223.275 149.713 223.575 149.101 223.767 148.333C223.983 147.541 224.127 146.665 224.199 145.705C224.295 144.721 224.367 143.737 224.415 142.753L224.739 135.337H240.291V154.561H235.791V137.929L236.835 139.153H227.691L228.663 137.893L228.411 142.969C228.339 144.673 228.195 146.257 227.979 147.721C227.787 149.161 227.475 150.421 227.043 151.501C226.635 152.581 226.059 153.421 225.315 154.021C224.595 154.621 223.671 154.921 222.543 154.921ZM246.351 154.561V135.337H250.851V148.009L261.471 135.337H265.575V154.561H261.075V141.889L250.491 154.561H246.351ZM275.624 154.561V138.073L276.668 139.153H268.856V135.337H286.856V139.153H279.08L280.124 138.073V154.561H275.624ZM290.121 154.561V135.337H294.621V148.009L305.241 135.337H309.345V154.561H304.845V141.889L294.261 154.561H290.121ZM329.186 154.561L322.238 145.345L325.91 143.077L334.478 154.561H329.186ZM315.398 154.561V135.337H319.898V154.561H315.398ZM318.566 146.857V143.113H325.082V146.857H318.566ZM326.342 145.489L322.13 144.985L329.186 135.337H334.01L326.342 145.489Z" fill="#281B87"/>
<path d="M490.439 107.755C496.08 102.517 505.226 102.516 510.867 107.755L538.723 133.627C544.184 138.7 520.444 139.804 539.243 152.088C539.134 151.953 533.334 158.22 533.202 158.098L510.098 136.145V124.968C510.098 122.39 513.796 119.341 510.867 118.122H494.208C492.67 119.551 499.274 132.162 500.812 133.59L529.596 160.325C529.733 160.452 529.879 160.568 530.03 160.673L510.867 178.471C505.226 183.71 496.08 183.71 490.439 178.471L462.584 152.599C457.131 147.535 467.288 146.762 468.602 128.417L494.208 152.599C492.305 164.037 492.669 169.533 494.208 168.104H510.098C511.636 166.676 501.026 153.13 499.487 151.701L471.305 125.526L490.439 107.755Z" fill="#060030"/>
<path d="M569.859 155.561L561.327 143.285L565.107 140.945L575.151 155.561H569.859ZM553.191 155.561V130.361H557.799V155.561H553.191ZM556.395 144.941V140.909H564.891V144.941H556.395ZM565.539 143.501L561.255 142.925L569.859 130.361H574.827L565.539 143.501ZM586.145 155.813C584.177 155.813 582.425 155.393 580.889 154.553C579.353 153.689 578.141 152.513 577.253 151.025C576.365 149.537 575.921 147.845 575.921 145.949C575.921 144.029 576.365 142.337 577.253 140.873C578.141 139.385 579.353 138.221 580.889 137.381C582.425 136.541 584.177 136.121 586.145 136.121C588.137 136.121 589.901 136.541 591.437 137.381C592.997 138.221 594.209 139.373 595.073 140.837C595.961 142.301 596.405 144.005 596.405 145.949C596.405 147.845 595.961 149.537 595.073 151.025C594.209 152.513 592.997 153.689 591.437 154.553C589.901 155.393 588.137 155.813 586.145 155.813ZM586.145 151.961C587.249 151.961 588.233 151.721 589.097 151.241C589.961 150.761 590.633 150.065 591.113 149.153C591.617 148.241 591.869 147.173 591.869 145.949C591.869 144.701 591.617 143.633 591.113 142.745C590.633 141.833 589.961 141.137 589.097 140.657C588.233 140.177 587.261 139.937 586.181 139.937C585.077 139.937 584.093 140.177 583.229 140.657C582.389 141.137 581.717 141.833 581.213 142.745C580.709 143.633 580.457 144.701 580.457 145.949C580.457 147.173 580.709 148.241 581.213 149.153C581.717 150.065 582.389 150.761 583.229 151.241C584.093 151.721 585.065 151.961 586.145 151.961ZM600.851 155.561V136.337H605.351V144.149H615.035V136.337H619.535V155.561H615.035V147.965H605.351V155.561H600.851ZM634.314 155.813C632.298 155.813 630.498 155.393 628.914 154.553C627.354 153.689 626.13 152.513 625.242 151.025C624.354 149.537 623.91 147.845 623.91 145.949C623.91 144.029 624.354 142.337 625.242 140.873C626.13 139.385 627.354 138.221 628.914 137.381C630.498 136.541 632.298 136.121 634.314 136.121C636.186 136.121 637.83 136.505 639.246 137.273C640.686 138.017 641.778 139.121 642.522 140.585L639.066 142.601C638.49 141.689 637.782 141.017 636.942 140.585C636.126 140.153 635.238 139.937 634.278 139.937C633.174 139.937 632.178 140.177 631.29 140.657C630.402 141.137 629.706 141.833 629.202 142.745C628.698 143.633 628.446 144.701 628.446 145.949C628.446 147.197 628.698 148.277 629.202 149.189C629.706 150.077 630.402 150.761 631.29 151.241C632.178 151.721 633.174 151.961 634.278 151.961C635.238 151.961 636.126 151.745 636.942 151.313C637.782 150.881 638.49 150.209 639.066 149.297L642.522 151.313C641.778 152.753 640.686 153.869 639.246 154.661C637.83 155.429 636.186 155.813 634.314 155.813ZM650.339 155.561V139.073L651.383 140.153H643.571V136.337H661.571V140.153H653.795L654.839 139.073V155.561H650.339ZM675.491 155.813C673.931 155.813 672.503 155.453 671.207 154.733C669.935 154.013 668.915 152.933 668.147 151.493C667.403 150.029 667.031 148.181 667.031 145.949C667.031 143.693 667.391 141.845 668.111 140.405C668.855 138.965 669.863 137.897 671.135 137.201C672.407 136.481 673.859 136.121 675.491 136.121C677.387 136.121 679.055 136.529 680.495 137.345C681.959 138.161 683.111 139.301 683.951 140.765C684.815 142.229 685.247 143.957 685.247 145.949C685.247 147.941 684.815 149.681 683.951 151.169C683.111 152.633 681.959 153.773 680.495 154.589C679.055 155.405 677.387 155.813 675.491 155.813ZM664.835 162.545V136.337H669.119V140.873L668.975 145.985L669.335 151.097V162.545H664.835ZM674.987 151.961C676.067 151.961 677.027 151.721 677.867 151.241C678.731 150.761 679.415 150.065 679.919 149.153C680.423 148.241 680.675 147.173 680.675 145.949C680.675 144.701 680.423 143.633 679.919 142.745C679.415 141.833 678.731 141.137 677.867 140.657C677.027 140.177 676.067 139.937 674.987 139.937C673.907 139.937 672.935 140.177 672.071 140.657C671.207 141.137 670.523 141.833 670.019 142.745C669.515 143.633 669.263 144.701 669.263 145.949C669.263 147.173 669.515 148.241 670.019 149.153C670.523 150.065 671.207 150.761 672.071 151.241C672.935 151.721 673.907 151.961 674.987 151.961ZM690.926 162.797C689.99 162.797 689.054 162.641 688.118 162.329C687.182 162.017 686.402 161.585 685.778 161.033L687.578 157.721C688.034 158.129 688.55 158.453 689.126 158.693C689.702 158.933 690.29 159.053 690.89 159.053C691.706 159.053 692.366 158.849 692.87 158.441C693.374 158.033 693.842 157.349 694.274 156.389L695.39 153.869L695.75 153.329L703.022 136.337H707.342L698.342 157.109C697.742 158.549 697.07 159.689 696.326 160.529C695.606 161.369 694.79 161.957 693.878 162.293C692.99 162.629 692.006 162.797 690.926 162.797ZM694.886 156.245L686.21 136.337H690.89L697.946 152.933L694.886 156.245ZM724.256 155.561L717.308 146.345L720.98 144.077L729.548 155.561H724.256ZM710.468 155.561V136.337H714.968V155.561H710.468ZM713.636 147.857V144.113H720.152V147.857H713.636ZM721.412 146.489L717.2 145.985L724.256 136.337H729.08L721.412 146.489ZM736.472 155.561V139.073L737.516 140.153H729.704V136.337H747.704V140.153H739.928L740.972 139.073V155.561H736.472ZM758.692 155.813C756.724 155.813 754.972 155.393 753.436 154.553C751.9 153.689 750.688 152.513 749.8 151.025C748.912 149.537 748.468 147.845 748.468 145.949C748.468 144.029 748.912 142.337 749.8 140.873C750.688 139.385 751.9 138.221 753.436 137.381C754.972 136.541 756.724 136.121 758.692 136.121C760.684 136.121 762.448 136.541 763.984 137.381C765.544 138.221 766.756 139.373 767.62 140.837C768.508 142.301 768.952 144.005 768.952 145.949C768.952 147.845 768.508 149.537 767.62 151.025C766.756 152.513 765.544 153.689 763.984 154.553C762.448 155.393 760.684 155.813 758.692 155.813ZM758.692 151.961C759.796 151.961 760.78 151.721 761.644 151.241C762.508 150.761 763.18 150.065 763.66 149.153C764.164 148.241 764.416 147.173 764.416 145.949C764.416 144.701 764.164 143.633 763.66 142.745C763.18 141.833 762.508 141.137 761.644 140.657C760.78 140.177 759.808 139.937 758.728 139.937C757.624 139.937 756.64 140.177 755.776 140.657C754.936 141.137 754.264 141.833 753.76 142.745C753.256 143.633 753.004 144.701 753.004 145.949C753.004 147.173 753.256 148.241 753.76 149.153C754.264 150.065 754.936 150.761 755.776 151.241C756.64 151.721 757.612 151.961 758.692 151.961ZM784.054 155.813C782.494 155.813 781.066 155.453 779.77 154.733C778.498 154.013 777.478 152.933 776.71 151.493C775.966 150.029 775.594 148.181 775.594 145.949C775.594 143.693 775.954 141.845 776.674 140.405C777.418 138.965 778.426 137.897 779.698 137.201C780.97 136.481 782.422 136.121 784.054 136.121C785.95 136.121 787.618 136.529 789.058 137.345C790.522 138.161 791.674 139.301 792.514 140.765C793.378 142.229 793.81 143.957 793.81 145.949C793.81 147.941 793.378 149.681 792.514 151.169C791.674 152.633 790.522 153.773 789.058 154.589C787.618 155.405 785.95 155.813 784.054 155.813ZM773.398 162.545V136.337H777.682V140.873L777.538 145.985L777.898 151.097V162.545H773.398ZM783.55 151.961C784.63 151.961 785.59 151.721 786.43 151.241C787.294 150.761 787.978 150.065 788.482 149.153C788.986 148.241 789.238 147.173 789.238 145.949C789.238 144.701 788.986 143.633 788.482 142.745C787.978 141.833 787.294 141.137 786.43 140.657C785.59 140.177 784.63 139.937 783.55 139.937C782.47 139.937 781.498 140.177 780.634 140.657C779.77 141.137 779.086 141.833 778.582 142.745C778.078 143.633 777.826 144.701 777.826 145.949C777.826 147.173 778.078 148.241 778.582 149.153C779.086 150.065 779.77 150.761 780.634 151.241C781.498 151.721 782.47 151.961 783.55 151.961Z" fill="#060030"/>
<path d="M996.439 107.755C1002.08 102.517 1011.23 102.516 1016.87 107.755L1044.72 133.627C1050.18 138.699 1026.44 139.804 1045.24 152.088C1045.13 151.953 1039.33 158.22 1039.2 158.097L1016.1 136.145V124.968C1016.1 122.39 1019.8 119.341 1016.87 118.122H1000.21C998.67 119.55 1005.27 132.162 1006.81 133.59L1035.6 160.325C1035.73 160.452 1035.88 160.568 1036.03 160.672L1016.87 178.471C1011.23 183.71 1002.08 183.709 996.439 178.471L968.584 152.599C963.131 147.535 973.289 146.762 974.602 128.417L1000.21 152.599C998.305 164.037 998.67 169.533 1000.21 168.104H1016.1C1017.64 166.675 1007.03 153.129 1005.49 151.701L977.305 125.526L996.439 107.755Z" fill="#281B87"/>
<path d="M1072.01 153.941C1068.84 153.941 1066.14 153.509 1063.91 152.645C1061.7 151.781 1060.01 150.533 1058.83 148.901C1057.66 147.245 1057.07 145.253 1057.07 142.925C1057.07 140.549 1057.66 138.545 1058.83 136.913C1060.01 135.281 1061.7 134.033 1063.91 133.169C1066.14 132.305 1068.84 131.873 1072.01 131.873C1072.06 131.873 1072.16 131.873 1072.33 131.873C1072.52 131.873 1072.7 131.873 1072.87 131.873C1073.06 131.873 1073.17 131.873 1073.2 131.873C1076.34 131.873 1079.02 132.305 1081.22 133.169C1083.43 134.033 1085.11 135.293 1086.26 136.949C1087.42 138.581 1087.99 140.573 1087.99 142.925C1087.99 145.229 1087.42 147.209 1086.26 148.865C1085.14 150.521 1083.48 151.781 1081.3 152.645C1079.14 153.509 1076.5 153.941 1073.38 153.941C1073.33 153.941 1073.2 153.941 1072.98 153.941C1072.79 153.941 1072.58 153.941 1072.37 153.941C1072.18 153.941 1072.06 153.941 1072.01 153.941ZM1072.48 150.305C1072.52 150.305 1072.6 150.305 1072.69 150.305C1072.79 150.305 1072.85 150.305 1072.87 150.305C1075.2 150.281 1077.14 149.993 1078.7 149.441C1080.29 148.889 1081.48 148.073 1082.27 146.993C1083.08 145.889 1083.49 144.521 1083.49 142.889C1083.49 141.257 1083.08 139.901 1082.27 138.821C1081.45 137.741 1080.26 136.925 1078.7 136.373C1077.14 135.821 1075.22 135.545 1072.94 135.545C1072.92 135.545 1072.85 135.545 1072.73 135.545C1072.61 135.545 1072.52 135.545 1072.48 135.545C1070.1 135.545 1068.1 135.821 1066.46 136.373C1064.86 136.901 1063.64 137.717 1062.83 138.821C1062.04 139.901 1061.64 141.269 1061.64 142.925C1061.64 144.581 1062.06 145.961 1062.9 147.065C1063.76 148.145 1065 148.961 1066.61 149.513C1068.22 150.041 1070.17 150.305 1072.48 150.305ZM1070.39 156.569V129.353H1074.71V156.569H1070.39ZM1100.97 155.813C1099 155.813 1097.25 155.393 1095.71 154.553C1094.18 153.689 1092.97 152.513 1092.08 151.025C1091.19 149.537 1090.75 147.845 1090.75 145.949C1090.75 144.029 1091.19 142.337 1092.08 140.873C1092.97 139.385 1094.18 138.221 1095.71 137.381C1097.25 136.541 1099 136.121 1100.97 136.121C1102.96 136.121 1104.73 136.541 1106.26 137.381C1107.82 138.221 1109.03 139.373 1109.9 140.837C1110.79 142.301 1111.23 144.005 1111.23 145.949C1111.23 147.845 1110.79 149.537 1109.9 151.025C1109.03 152.513 1107.82 153.689 1106.26 154.553C1104.73 155.393 1102.96 155.813 1100.97 155.813ZM1100.97 151.961C1102.07 151.961 1103.06 151.721 1103.92 151.241C1104.79 150.761 1105.46 150.065 1105.94 149.153C1106.44 148.241 1106.69 147.173 1106.69 145.949C1106.69 144.701 1106.44 143.633 1105.94 142.745C1105.46 141.833 1104.79 141.137 1103.92 140.657C1103.06 140.177 1102.09 139.937 1101.01 139.937C1099.9 139.937 1098.92 140.177 1098.05 140.657C1097.21 141.137 1096.54 141.833 1096.04 142.745C1095.53 143.633 1095.28 144.701 1095.28 145.949C1095.28 147.173 1095.53 148.241 1096.04 149.153C1096.54 150.065 1097.21 150.761 1098.05 151.241C1098.92 151.721 1099.89 151.961 1100.97 151.961ZM1129.46 155.561L1122.52 146.345L1126.19 144.077L1134.76 155.561H1129.46ZM1115.68 155.561V136.337H1120.18V155.561H1115.68ZM1118.84 147.857V144.113H1125.36V147.857H1118.84ZM1126.62 146.489L1122.41 145.985L1129.46 136.337H1134.29L1126.62 146.489ZM1138.95 162.797C1138.02 162.797 1137.08 162.641 1136.15 162.329C1135.21 162.017 1134.43 161.585 1133.81 161.033L1135.61 157.721C1136.06 158.129 1136.58 158.453 1137.15 158.693C1137.73 158.933 1138.32 159.053 1138.92 159.053C1139.73 159.053 1140.39 158.849 1140.9 158.441C1141.4 158.033 1141.87 157.349 1142.3 156.389L1143.42 153.869L1143.78 153.329L1151.05 136.337H1155.37L1146.37 157.109C1145.77 158.549 1145.1 159.689 1144.35 160.529C1143.63 161.369 1142.82 161.957 1141.91 162.293C1141.02 162.629 1140.03 162.797 1138.95 162.797ZM1142.91 156.245L1134.24 136.337H1138.92L1145.97 152.933L1142.91 156.245ZM1166.72 155.813C1164.7 155.813 1162.9 155.393 1161.32 154.553C1159.76 153.689 1158.53 152.513 1157.64 151.025C1156.76 149.537 1156.31 147.845 1156.31 145.949C1156.31 144.029 1156.76 142.337 1157.64 140.873C1158.53 139.385 1159.76 138.221 1161.32 137.381C1162.9 136.541 1164.7 136.121 1166.72 136.121C1168.59 136.121 1170.23 136.505 1171.65 137.273C1173.09 138.017 1174.18 139.121 1174.92 140.585L1171.47 142.601C1170.89 141.689 1170.18 141.017 1169.34 140.585C1168.53 140.153 1167.64 139.937 1166.68 139.937C1165.58 139.937 1164.58 140.177 1163.69 140.657C1162.8 141.137 1162.11 141.833 1161.6 142.745C1161.1 143.633 1160.85 144.701 1160.85 145.949C1160.85 147.197 1161.1 148.277 1161.6 149.189C1162.11 150.077 1162.8 150.761 1163.69 151.241C1164.58 151.721 1165.58 151.961 1166.68 151.961C1167.64 151.961 1168.53 151.745 1169.34 151.313C1170.18 150.881 1170.89 150.209 1171.47 149.297L1174.92 151.313C1174.18 152.753 1173.09 153.869 1171.65 154.661C1170.23 155.429 1168.59 155.813 1166.72 155.813Z" fill="#281B87"/>
</svg>
